<?xml version="1.0" standalone="no"?>
<!DOCTYPE svg PUBLIC "-//W3C//DTD SVG 20010904//EN"
 "http://www.w3.org/TR/2001/REC-SVG-20010904/DTD/svg10.dtd">
<svg version="1.0" xmlns="http://www.w3.org/2000/svg"
 width="1080.000000pt" height="1080.000000pt" viewBox="0 0 1080.000000 1080.000000"
 preserveAspectRatio="xMidYMid meet">

<g transform="translate(0.000000,1080.000000) scale(0.100000,-0.100000)"
fill="#000000" stroke="none">
<path d="M5587 7685 c-137 -48 -170 -234 -59 -327 127 -107 313 -20 314 146 0
29 -7 66 -15 83 -32 62 -116 114 -182 113 -11 -1 -37 -7 -58 -15z"/>
<path d="M4900 7525 c-39 -13 -91 -61 -402 -372 -196 -197 -362 -371 -367
-386 -16 -41 -13 -104 5 -142 19 -41 703 -726 741 -742 47 -20 123 -15 168 11
22 13 39 29 37 36 -1 6 2 9 7 5 19 -11 45 58 45 120 1 51 -4 67 -30 105 -27
39 -204 216 -463 464 -40 38 -71 70 -69 72 2 1 123 124 270 271 173 174 273
282 283 306 42 102 -18 229 -120 252 -16 4 -37 8 -45 10 -8 2 -35 -3 -60 -10z"/>
<path d="M5955 7318 c-50 -18 -82 -46 -104 -91 -27 -56 -28 -141 -2 -182 37
-59 315 -334 353 -350 46 -19 118 -19 161 -1 59 24 117 111 117 176 0 63 -24
97 -183 259 -99 100 -178 171 -202 182 -44 21 -94 23 -140 7z"/>
<path d="M5295 6876 c-38 -17 -80 -62 -95 -101 -16 -41 -14 -109 5 -149 9 -18
135 -151 280 -296 146 -144 265 -263 265 -264 0 0 -105 -107 -233 -237 -303
-307 -314 -319 -327 -370 -22 -79 21 -173 96 -209 48 -24 123 -26 168 -5 18 9
190 174 383 368 312 312 353 357 363 396 13 48 8 92 -15 137 -24 48 -695 711
-737 729 -45 18 -112 19 -153 1z"/>
<path d="M3965 6071 c-102 -46 -140 -163 -88 -266 9 -16 86 -100 172 -186 170
-170 194 -185 282 -177 65 7 125 47 150 101 23 51 24 127 4 171 -20 42 -332
351 -368 365 -42 16 -107 13 -152 -8z"/>
<path d="M4615 5447 c-56 -22 -74 -37 -102 -84 -68 -117 1 -267 133 -289 115
-18 224 75 224 191 0 131 -137 228 -255 182z"/>
<path d="M2353 4595 c-137 -37 -213 -116 -213 -220 0 -103 53 -159 192 -203
51 -17 109 -33 128 -37 101 -21 160 -77 140 -130 -16 -43 -68 -58 -185 -53
-94 3 -106 6 -188 45 l-87 42 0 -94 0 -94 54 -25 c233 -110 515 -50 574 123
18 51 14 130 -8 178 -25 57 -79 90 -224 136 -130 43 -176 73 -176 117 0 90
176 105 301 25 30 -19 58 -35 62 -35 4 0 7 35 5 78 l-3 77 -52 28 c-57 30
-165 57 -228 56 -22 0 -64 -7 -92 -14z"/>
<path d="M3867 4603 c-4 -3 -7 -192 -7 -420 l0 -413 285 0 285 0 0 60 0 60
-190 0 -190 0 0 360 0 360 -88 0 c-49 0 -92 -3 -95 -7z"/>
<path d="M4527 4603 c-4 -3 -7 -192 -7 -420 l0 -413 285 0 285 0 0 60 0 60
-190 0 -190 0 0 360 0 360 -88 0 c-49 0 -92 -3 -95 -7z"/>
<path d="M5373 4595 c-137 -37 -213 -116 -213 -220 0 -103 53 -159 192 -203
51 -17 109 -33 128 -37 57 -12 125 -51 138 -79 17 -38 0 -74 -45 -93 -28 -11
-63 -14 -138 -11 -94 3 -106 6 -188 45 l-87 42 0 -94 0 -94 54 -25 c233 -110
515 -50 574 123 18 51 14 130 -8 178 -25 57 -79 90 -224 136 -130 43 -176 73
-176 117 0 90 176 105 301 25 30 -19 58 -35 62 -35 4 0 7 35 5 78 l-3 77 -52
28 c-57 30 -165 57 -228 56 -22 0 -64 -7 -92 -14z"/>
<path d="M5840 4520 l0 -90 140 0 140 0 0 -330 0 -330 90 0 90 0 0 330 0 330
134 0 134 0 -1 88 -2 87 -362 3 -363 2 0 -90z"/>
<path d="M2860 4185 l0 -415 85 0 84 0 3 151 3 150 160 -117 c88 -64 181 -132
208 -151 l47 -35 0 101 0 100 -155 122 c-85 67 -157 125 -160 129 -3 4 65 49
150 99 l155 91 0 96 0 95 -77 -42 c-43 -24 -134 -75 -203 -115 l-125 -72 -3
114 -3 114 -84 0 -85 0 0 -415z"/>
<path d="M3560 4185 l0 -415 85 0 85 0 0 415 0 415 -85 0 -85 0 0 -415z"/>
<path d="M6661 4198 c-79 -222 -146 -409 -149 -415 -3 -10 19 -13 90 -13 l94
0 28 85 27 85 154 0 153 0 22 -72 c11 -40 23 -79 25 -85 5 -14 155 -19 155 -5
0 4 -65 189 -144 412 l-144 405 -84 3 -84 3 -143 -403z m298 11 l48 -164 -100
-3 c-55 -1 -101 -1 -103 1 -2 1 10 48 27 102 16 55 39 131 50 168 11 38 22 67
25 64 2 -2 26 -78 53 -168z"/>
<path d="M7475 4577 c-60 -28 -106 -78 -129 -139 -15 -37 -17 -78 -14 -279 l3
-236 30 -48 c21 -35 45 -56 80 -74 47 -25 58 -26 210 -26 152 0 162 1 205 25
58 33 105 96 119 160 6 29 9 56 5 61 -3 5 -41 9 -84 9 l-78 0 -7 -29 c-12 -54
-48 -79 -120 -83 -80 -4 -132 4 -152 25 -23 23 -32 88 -32 232 -1 152 8 199
43 234 22 21 37 26 96 29 80 5 121 -8 151 -46 l20 -25 75 23 c41 13 77 27 79
30 3 4 -10 31 -28 61 -21 36 -48 63 -81 84 -48 29 -52 30 -195 33 -136 2 -149
1 -196 -21z"/>
<path d="M8090 4185 l0 -415 85 0 84 0 3 151 3 150 160 -117 c88 -64 181 -132
208 -151 l47 -35 0 101 0 100 -155 122 c-85 67 -157 125 -160 129 -3 4 65 49
150 99 l155 91 0 95 0 96 -27 -15 c-16 -8 -108 -59 -205 -114 l-178 -100 0
114 0 114 -85 0 -85 0 0 -415z"/>
</g>
</svg>
